<svg xmlns="http://www.w3.org/2000/svg" width="23" height="22" viewBox="0 0 23 22" fill="none">
  <path d="M22.3718 6.27618V0.205933C18.475 0.205933 14.6757 1.5171 11.9479 3.79952L11.2173 4.38227L10.4866 3.79952C7.71017 1.5171 3.95952 0.205933 0.0627441 0.205933V6.27618C0.0627441 7.92729 0.647267 9.48127 1.62146 10.7924C0.647267 12.1036 0.0627441 13.6576 0.0627441 15.3087V21.379C3.95952 21.379 7.75888 20.0678 10.4866 17.7854L11.2173 17.2026C9.31759 16.0857 8.14856 14.0947 8.14856 11.8608V9.72408C8.14856 7.53879 9.31759 5.49919 11.2173 4.38227C13.117 5.49919 14.286 7.53879 14.286 9.72408V11.8608C14.286 14.0461 13.117 16.0857 11.2173 17.2026L11.9479 17.7854C14.7244 20.0678 18.475 21.379 22.3718 21.379V15.3087C22.3718 13.6576 21.7873 12.1036 20.8131 10.7924C21.7873 9.48127 22.3718 7.92729 22.3718 6.27618Z" fill="#26AB75"/>
</svg>